<!DOCTYPE svg PUBLIC "-//W3C//DTD SVG 20010904//EN" "http://www.w3.org/TR/2001/REC-SVG-20010904/DTD/svg10.dtd">
<svg version="1.0" xmlns="http://www.w3.org/2000/svg" width="1600px" height="744px" viewBox="0 0 16000 7440" preserveAspectRatio="xMidYMid meet">
<g id="layer101" fill="#fdd008" stroke="none">
 <path d="M13775 7420 c-195 -36 -385 -99 -560 -188 -477 -242 -850 -722 -975 -1256 -65 -275 -66 -572 -3 -856 21 -97 79 -279 98 -310 3 -6 43 9 88 31 142 71 571 298 591 312 19 14 19 16 -3 94 -53 196 -51 399 5 603 67 242 209 443 431 607 136 101 328 177 507 202 551 77 1094 -295 1236 -847 47 -182 45 -371 -5 -561 -105 -395 -434 -714 -837 -811 -106 -26 -366 -29 -473 -6 -147 32 -312 103 -413 178 -29 22 -57 38 -62 36 -21 -8 -570 -515 -570 -527 0 -4 30 -32 67 -62 567 -460 1350 -556 2008 -244 137 64 278 150 370 223 157 126 355 348 451 507 39 64 117 227 156 324 132 334 155 782 58 1155 -16 61 -40 140 -53 176 -41 107 -152 326 -208 408 -125 184 -337 396 -520 518 -187 125 -453 235 -689 285 -154 32 -536 37 -695 9z"/>
 <path d="M2738 7025 c-194 -33 -386 -136 -496 -267 -93 -111 -142 -268 -125 -407 l6 -51 213 0 214 0 0 35 c0 79 67 157 177 207 193 87 421 74 601 -36 72 -44 103 -77 138 -146 24 -46 28 -68 29 -135 0 -70 -4 -86 -28 -127 -52 -89 -139 -131 -377 -184 -241 -53 -317 -83 -397 -157 -108 -99 -141 -276 -81 -436 56 -148 287 -271 510 -271 241 0 442 104 481 247 l11 43 69 0 70 0 -5 -49 c-14 -145 -155 -273 -378 -343 -65 -20 -96 -23 -225 -23 -175 0 -241 16 -388 93 -216 113 -307 267 -295 502 7 138 48 240 129 318 104 102 250 171 397 188 43 4 62 11 62 20 0 18 -57 18 -180 -1 -240 -36 -427 -150 -505 -308 -46 -93 -59 -167 -52 -297 14 -294 193 -504 522 -617 430 -146 950 22 1047 340 22 74 29 207 15 280 l-8 37 -214 0 -215 0 0 -60 c0 -99 -35 -142 -145 -180 -147 -50 -291 -46 -419 14 -128 59 -185 157 -157 273 29 120 130 184 374 238 250 55 404 120 476 201 63 72 84 139 79 255 -5 106 -29 171 -93 260 -68 92 -227 194 -375 240 -65 21 -96 24 -230 24 -134 0 -165 -3 -230 -24 -148 -46 -244 -115 -302 -218 l-30 -53 -65 0 -65 0 7 38 c11 61 54 139 103 190 96 98 281 180 457 202 334 42 727 -135 873 -393 97 -170 105 -418 17 -537 -54 -73 -18 -82 47 -12 80 85 118 196 118 342 0 187 -54 325 -175 446 -159 160 -386 269 -630 303 -100 14 -260 12 -357 -4z"/>
 <path d="M4165 6988 c7 -42 153 -1078 241 -1710 l68 -488 522 0 c495 0 525 1 587 20 125 39 230 144 268 272 27 89 23 233 -9 317 -68 174 -238 326 -404 360 -34 7 -189 10 -439 9 l-385 -3 49 -352 50 -353 301 0 c437 1 518 16 557 105 23 52 24 175 2 183 -8 2 -13 -5 -13 -18 0 -42 -28 -78 -77 -97 -43 -16 -81 -18 -348 -18 l-300 0 -7 45 c-3 25 -14 106 -22 180 -9 74 -18 145 -21 158 l-6 23 333 -3 333 -3 57 -28 c70 -34 156 -125 193 -204 24 -49 28 -71 28 -148 0 -77 -3 -97 -25 -140 -33 -63 -79 -108 -143 -137 -49 -23 -55 -23 -500 -26 l-451 -3 -132 928 c-73 510 -135 947 -138 971 l-5 42 64 0 64 0 5 -32 c3 -18 34 -236 69 -485 l63 -452 436 -3 c481 -5 472 -4 613 -75 100 -50 222 -175 275 -281 22 -45 46 -106 53 -137 8 -35 17 -55 26 -55 16 0 15 12 -13 125 -61 254 -288 488 -534 551 -52 13 -133 17 -396 21 l-332 5 -10 67 c-5 36 -36 254 -68 484 l-58 417 -214 0 -213 0 6 -32z"/>
 <path d="M5610 7017 c0 -8 197 -422 355 -747 98 -201 206 -426 240 -500 35 -74 120 -252 190 -395 70 -143 163 -336 207 -430 71 -151 328 -684 335 -694 4 -6 358 141 371 154 2 1 -37 88 -86 191 -50 104 -138 290 -197 414 -59 124 -109 234 -112 245 -2 11 34 209 80 440 47 231 88 437 91 458 l7 37 -391 0 c-246 0 -390 -4 -390 -10 0 -14 34 -87 182 -390 75 -151 139 -286 143 -299 11 -36 20 -12 40 107 l17 104 -76 163 c-42 90 -76 166 -76 169 0 3 81 6 180 6 137 0 180 -3 180 -12 0 -7 -34 -184 -76 -393 l-76 -380 175 -360 c97 -198 177 -369 179 -380 2 -14 -7 -24 -32 -37 -19 -9 -42 -17 -51 -18 -18 0 -142 251 -776 1565 -80 165 -205 423 -278 573 l-134 272 70 0 70 0 98 -202 c54 -112 114 -238 134 -281 l36 -77 437 2 438 3 55 275 56 275 71 3 72 3 -138 -683 c-75 -376 -147 -739 -160 -808 l-22 -125 53 -114 c41 -88 55 -109 61 -95 8 22 372 1824 383 1898 3 27 9 55 12 62 4 12 -34 14 -226 14 l-231 0 -4 -22 c-2 -13 -25 -131 -51 -263 -25 -132 -48 -248 -51 -257 -5 -17 -30 -18 -335 -18 l-329 0 -71 148 c-39 81 -98 207 -131 280 l-61 132 -228 0 c-126 0 -229 -1 -229 -3z"/>
 <path d="M7795 6998 c6 -28 186 -1301 255 -1803 28 -203 53 -378 56 -388 5 -17 32 -18 512 -15 l507 3 67 32 c197 93 286 300 227 527 -26 97 -70 170 -153 251 -86 85 -151 124 -252 150 -78 20 -764 23 -764 3 0 -7 21 -167 47 -355 l48 -343 270 0 c148 0 303 5 342 10 81 10 145 39 168 73 34 52 41 207 9 207 -9 0 -14 -11 -14 -28 0 -38 -25 -71 -69 -90 -29 -13 -86 -17 -308 -20 l-272 -4 -5 24 c-6 33 -46 360 -46 376 0 11 57 13 293 10 l292 -3 63 -34 c75 -41 150 -119 189 -199 24 -50 28 -68 28 -147 0 -74 -4 -97 -23 -132 -35 -66 -79 -110 -140 -140 l-57 -28 -415 0 -414 0 -117 815 c-64 448 -124 876 -133 950 -10 74 -20 143 -22 153 -5 15 3 17 60 17 36 0 66 -3 66 -7 1 -5 31 -222 68 -483 l68 -475 248 0 248 0 190 440 c104 242 198 459 208 483 l19 42 75 0 75 0 -26 -57 c-214 -479 -395 -904 -388 -911 2 -2 35 -8 73 -12 181 -23 358 -121 458 -253 57 -76 111 -185 120 -243 4 -29 11 -44 21 -44 11 0 12 9 8 38 -35 209 -142 414 -267 513 -52 41 -160 99 -185 99 -7 0 -13 3 -13 6 0 5 130 311 356 838 35 82 64 155 64 163 0 11 -41 13 -235 11 l-236 -3 -163 -380 c-90 -209 -184 -425 -208 -480 l-44 -100 -135 -3 -135 -3 -63 453 c-35 249 -66 468 -69 486 l-5 32 -213 0 -214 0 5 -22z"/>
 <path d="M9873 6988 c4 -18 70 -483 147 -1033 77 -550 146 -1037 152 -1082 l12 -83 214 0 214 0 -6 33 c-3 17 -22 147 -41 287 -20 140 -41 260 -48 266 -62 59 -150 134 -153 131 -2 -2 14 -129 36 -283 22 -153 40 -282 40 -286 0 -5 -29 -8 -64 -8 l-64 0 -17 138 c-9 75 -71 510 -136 966 -65 456 -119 831 -119 833 0 2 29 3 65 3 59 0 65 -2 70 -22 2 -13 30 -205 60 -428 31 -223 65 -476 78 -564 l22 -158 515 -454 515 -453 298 -1 c178 0 297 4 295 9 -1 5 -43 44 -93 86 -49 43 -153 135 -230 205 -77 70 -173 156 -214 191 -210 182 -561 500 -561 509 0 5 10 21 23 37 42 50 787 1170 787 1181 0 9 -71 12 -264 12 l-265 0 -188 -281 c-103 -155 -236 -354 -296 -443 l-107 -162 15 -109 c15 -102 20 -124 28 -114 2 2 147 219 322 482 l318 477 78 0 c44 0 79 -3 79 -7 -1 -5 -165 -253 -365 -553 l-365 -545 43 -40 c74 -67 389 -348 434 -385 23 -19 137 -119 253 -222 l211 -188 -90 0 -90 0 -127 113 c-180 160 -320 283 -400 351 -38 32 -109 95 -159 141 -49 45 -129 116 -177 159 -49 43 -88 79 -88 80 0 1 -32 227 -71 502 -38 274 -78 554 -86 622 l-17 122 -214 0 -214 0 5 -32z"/>
 <path d="M13910 5435 c-96 -52 -178 -95 -182 -95 -3 0 -64 -31 -135 -69 -381 -203 -645 -343 -788 -416 -88 -45 -263 -137 -390 -205 -126 -68 -331 -176 -455 -240 -124 -64 -333 -175 -465 -245 -132 -71 -341 -181 -465 -245 -124 -64 -333 -174 -465 -245 -132 -70 -328 -173 -435 -227 -107 -55 -228 -119 -270 -143 -95 -54 -241 -127 -245 -123 -7 7 -185 337 -272 503 -52 99 -116 218 -143 265 -26 47 -101 182 -165 300 -64 118 -118 216 -119 218 -4 4 -166 -73 -541 -258 -181 -89 -953 -467 -1715 -840 -762 -373 -1449 -710 -1528 -749 -78 -39 -144 -71 -146 -71 -5 0 -914 -446 -1034 -507 l-94 -48 -109 -240 c-60 -132 -144 -315 -186 -408 -42 -92 -74 -170 -71 -173 3 -3 127 24 274 60 874 212 1366 331 1494 361 312 73 716 169 950 226 l245 60 76 142 c42 78 120 224 173 323 l97 181 82 17 c45 10 366 87 714 173 l632 155 143 -124 c78 -68 205 -177 282 -242 78 -66 193 -165 256 -220 63 -56 142 -124 175 -151 97 -81 265 -225 334 -287 35 -32 72 -58 82 -58 10 0 307 63 661 141 354 77 690 149 748 160 58 11 269 57 470 100 201 44 391 85 422 91 l57 11 178 228 c98 126 181 228 185 229 6 0 183 -114 432 -279 252 -167 365 -314 438 -568 19 -66 23 -102 22 -228 0 -135 -3 -159 -28 -240 -53 -172 -77 -209 -481 -720 -208 -264 -399 -505 -424 -536 -102 -125 -141 -179 -132 -179 5 0 79 55 164 123 86 67 204 160 264 207 59 47 193 153 298 235 383 301 727 570 753 590 15 11 116 90 225 175 110 85 279 216 377 290 97 74 208 160 246 191 38 31 141 111 229 178 88 67 208 159 267 204 59 45 108 84 107 87 0 3 -36 34 -81 70 -135 109 -739 600 -907 738 -52 42 -212 173 -355 290 -144 118 -279 221 -301 230 -223 91 -495 268 -678 443 l-78 74 187 170 c104 94 229 208 279 255 49 47 307 285 573 529 265 243 482 444 482 447 0 10 -26 -2 -190 -91z"/>
 <path d="M4260 4288 c-91 -49 -233 -128 -317 -174 -84 -46 -214 -116 -290 -155 -76 -39 -176 -93 -223 -119 -47 -26 -150 -82 -230 -125 -80 -43 -174 -95 -210 -115 -36 -21 -137 -75 -225 -120 -88 -45 -185 -97 -215 -115 -30 -18 -129 -72 -220 -120 -91 -49 -215 -117 -277 -151 -62 -35 -132 -72 -155 -82 -82 -37 -633 -342 -618 -342 8 0 184 83 390 184 628 308 1250 612 1340 654 47 22 251 121 454 221 203 100 482 236 620 303 138 66 256 124 262 129 7 6 30 -26 69 -99 68 -125 297 -549 362 -669 25 -46 47 -83 50 -83 7 0 753 343 1098 505 149 70 304 142 345 159 146 63 470 219 470 226 0 4 -136 -44 -302 -107 -167 -63 -346 -130 -398 -148 -52 -18 -246 -90 -430 -160 -526 -199 -703 -265 -714 -265 -6 0 -36 48 -65 108 -30 59 -105 199 -166 312 -61 113 -140 258 -174 323 -34 64 -63 117 -64 116 -1 0 -76 -41 -167 -91z"/>
 <path d="M7635 4266 c-137 -61 -356 -158 -485 -215 -129 -56 -316 -138 -415 -181 -99 -44 -328 -145 -510 -226 -181 -80 -346 -152 -365 -159 -19 -7 -233 -100 -475 -208 -497 -220 -657 -289 -660 -285 -1 2 -55 102 -120 223 -65 121 -138 255 -162 297 -24 43 -70 131 -103 195 -33 65 -63 124 -69 132 -7 11 -29 3 -112 -42 -57 -30 -268 -138 -469 -240 -1222 -617 -3211 -1626 -3567 -1809 -68 -35 -123 -66 -123 -70 0 -7 32 7 440 202 221 105 330 156 580 271 58 26 220 102 360 169 140 67 302 143 360 170 58 27 260 122 450 211 190 89 473 221 630 294 157 73 373 174 480 225 235 111 587 276 765 357 l129 60 49 -86 c27 -47 73 -133 102 -191 29 -58 76 -148 105 -200 28 -52 86 -158 128 -235 41 -77 77 -142 79 -144 2 -3 146 66 321 151 174 86 461 227 637 313 1623 796 2285 1123 2285 1129 0 11 -13 5 -265 -108z"/>
 <path d="M3899 3126 c-118 -57 -320 -155 -449 -217 -129 -62 -344 -166 -478 -231 -134 -65 -246 -118 -249 -118 -3 0 -208 -98 -457 -219 -248 -120 -597 -289 -776 -375 -179 -85 -342 -163 -362 -173 -46 -22 -50 -39 -5 -19 17 7 203 86 412 176 209 89 623 265 920 392 764 326 1409 602 1486 636 115 52 97 62 189 -110 46 -84 98 -181 117 -215 l34 -63 70 35 69 35 -46 93 c-53 103 -255 477 -258 477 -1 0 -99 -47 -217 -104z"/>
 </g>

</svg>